<svg id="SvgjsSvg1322" width="592" height="1448" xmlns="http://www.w3.org/2000/svg" version="1.1" xmlns:xlink="http://www.w3.org/1999/xlink" xmlns:svgjs="http://svgjs.com/svgjs"><defs id="SvgjsDefs1323"><marker id="SvgjsMarker1338" markerWidth="16" markerHeight="12" refX="16" refY="6" viewBox="0 0 16 12" orient="auto" markerUnits="userSpaceOnUse" stroke-dasharray="0,0"><path id="SvgjsPath1339" d="M0,2 L14,6 L0,11 L0,2" fill="#323232" stroke="#323232" stroke-width="2"></path></marker><marker id="SvgjsMarker1354" markerWidth="16" markerHeight="12" refX="16" refY="6" viewBox="0 0 16 12" orient="auto" markerUnits="userSpaceOnUse" stroke-dasharray="0,0"><path id="SvgjsPath1355" d="M0,2 L14,6 L0,11 L0,2" fill="#323232" stroke="#323232" stroke-width="2"></path></marker><marker id="SvgjsMarker1362" markerWidth="16" markerHeight="12" refX="16" refY="6" viewBox="0 0 16 12" orient="auto" markerUnits="userSpaceOnUse" stroke-dasharray="0,0"><path id="SvgjsPath1363" d="M0,2 L14,6 L0,11 L0,2" fill="#323232" stroke="#323232" stroke-width="2"></path></marker><marker id="SvgjsMarker1370" markerWidth="16" markerHeight="12" refX="16" refY="6" viewBox="0 0 16 12" orient="auto" markerUnits="userSpaceOnUse" stroke-dasharray="0,0"><path id="SvgjsPath1371" d="M0,2 L14,6 L0,11 L0,2" fill="#323232" stroke="#323232" stroke-width="2"></path></marker><marker id="SvgjsMarker1390" markerWidth="16" markerHeight="12" refX="16" refY="6" viewBox="0 0 16 12" orient="auto" markerUnits="userSpaceOnUse" stroke-dasharray="0,0"><path id="SvgjsPath1391" d="M0,2 L14,6 L0,11 L0,2" fill="#323232" stroke="#323232" stroke-width="2"></path></marker><marker id="SvgjsMarker1394" markerWidth="16" markerHeight="12" refX="16" refY="6" viewBox="0 0 16 12" orient="auto" markerUnits="userSpaceOnUse" stroke-dasharray="0,0"><path id="SvgjsPath1395" d="M0,2 L14,6 L0,11 L0,2" fill="#323232" stroke="#323232" stroke-width="2"></path></marker><marker id="SvgjsMarker1398" markerWidth="16" markerHeight="12" refX="16" refY="6" viewBox="0 0 16 12" orient="auto" markerUnits="userSpaceOnUse" stroke-dasharray="0,0"><path id="SvgjsPath1399" d="M0,2 L14,6 L0,11 L0,2" fill="#323232" stroke="#323232" stroke-width="2"></path></marker><marker id="SvgjsMarker1402" markerWidth="16" markerHeight="12" refX="16" refY="6" viewBox="0 0 16 12" orient="auto" markerUnits="userSpaceOnUse" stroke-dasharray="0,0"><path id="SvgjsPath1403" d="M0,2 L14,6 L0,11 L0,2" fill="#323232" stroke="#323232" stroke-width="2"></path></marker><marker id="SvgjsMarker1424" markerWidth="16" markerHeight="12" refX="16" refY="6" viewBox="0 0 16 12" orient="auto" markerUnits="userSpaceOnUse" stroke-dasharray="0,0"><path id="SvgjsPath1425" d="M0,2 L14,6 L0,11 L0,2" fill="#323232" stroke="#323232" stroke-width="2"></path></marker><marker id="SvgjsMarker1440" markerWidth="16" markerHeight="12" refX="16" refY="6" viewBox="0 0 16 12" orient="auto" markerUnits="userSpaceOnUse" stroke-dasharray="0,0"><path id="SvgjsPath1441" d="M0,2 L14,6 L0,11 L0,2" fill="#323232" stroke="#323232" stroke-width="2"></path></marker><marker id="SvgjsMarker1454" markerWidth="16" markerHeight="12" refX="16" refY="6" viewBox="0 0 16 12" orient="auto" markerUnits="userSpaceOnUse" stroke-dasharray="0,0"><path id="SvgjsPath1455" d="M0,2 L14,6 L0,11 L0,2" fill="#323232" stroke="#323232" stroke-width="2"></path></marker><marker id="SvgjsMarker1458" markerWidth="16" markerHeight="12" refX="16" refY="6" viewBox="0 0 16 12" orient="auto" markerUnits="userSpaceOnUse" stroke-dasharray="0,0"><path id="SvgjsPath1459" d="M0,2 L14,6 L0,11 L0,2" fill="#323232" stroke="#323232" stroke-width="2"></path></marker><marker id="SvgjsMarker1470" markerWidth="16" markerHeight="12" refX="16" refY="6" viewBox="0 0 16 12" orient="auto" markerUnits="userSpaceOnUse" stroke-dasharray="0,0"><path id="SvgjsPath1471" d="M0,2 L14,6 L0,11 L0,2" fill="#323232" stroke="#323232" stroke-width="2"></path></marker><marker id="SvgjsMarker1478" markerWidth="16" markerHeight="12" refX="16" refY="6" viewBox="0 0 16 12" orient="auto" markerUnits="userSpaceOnUse" stroke-dasharray="0,0"><path id="SvgjsPath1479" d="M0,2 L14,6 L0,11 L0,2" fill="#323232" stroke="#323232" stroke-width="2"></path></marker><marker id="SvgjsMarker1500" markerWidth="16" markerHeight="12" refX="16" refY="6" viewBox="0 0 16 12" orient="auto" markerUnits="userSpaceOnUse" stroke-dasharray="0,0"><path id="SvgjsPath1501" d="M0,2 L14,6 L0,11 L0,2" fill="#323232" stroke="#323232" stroke-width="2"></path></marker><marker id="SvgjsMarker1518" markerWidth="16" markerHeight="12" refX="16" refY="6" viewBox="0 0 16 12" orient="auto" markerUnits="userSpaceOnUse" stroke-dasharray="0,0"><path id="SvgjsPath1519" d="M0,2 L14,6 L0,11 L0,2" fill="#323232" stroke="#323232" stroke-width="2"></path></marker><marker id="SvgjsMarker1530" markerWidth="16" markerHeight="12" refX="16" refY="6" viewBox="0 0 16 12" orient="auto" markerUnits="userSpaceOnUse" stroke-dasharray="0,0"><path id="SvgjsPath1531" d="M0,2 L14,6 L0,11 L0,2" fill="#323232" stroke="#323232" stroke-width="2"></path></marker><marker id="SvgjsMarker1550" markerWidth="16" markerHeight="12" refX="16" refY="6" viewBox="0 0 16 12" orient="auto" markerUnits="userSpaceOnUse" stroke-dasharray="0,0"><path id="SvgjsPath1551" d="M0,2 L14,6 L0,11 L0,2" fill="#323232" stroke="#323232" stroke-width="2"></path></marker><marker id="SvgjsMarker1558" markerWidth="16" markerHeight="12" refX="16" refY="6" viewBox="0 0 16 12" orient="auto" markerUnits="userSpaceOnUse" stroke-dasharray="0,0"><path id="SvgjsPath1559" d="M0,2 L14,6 L0,11 L0,2" fill="#323232" stroke="#323232" stroke-width="2"></path></marker><marker id="SvgjsMarker1574" markerWidth="16" markerHeight="12" refX="16" refY="6" viewBox="0 0 16 12" orient="auto" markerUnits="userSpaceOnUse" stroke-dasharray="0,0"><path id="SvgjsPath1575" d="M0,2 L14,6 L0,11 L0,2" fill="#323232" stroke="#323232" stroke-width="2"></path></marker><marker id="SvgjsMarker1586" markerWidth="16" markerHeight="12" refX="16" refY="6" viewBox="0 0 16 12" orient="auto" markerUnits="userSpaceOnUse" stroke-dasharray="0,0"><path id="SvgjsPath1587" d="M0,2 L14,6 L0,11 L0,2" fill="#323232" stroke="#323232" stroke-width="2"></path></marker><marker id="SvgjsMarker1602" markerWidth="16" markerHeight="12" refX="16" refY="6" viewBox="0 0 16 12" orient="auto" markerUnits="userSpaceOnUse" stroke-dasharray="0,0"><path id="SvgjsPath1603" d="M0,2 L14,6 L0,11 L0,2" fill="#323232" stroke="#323232" stroke-width="2"></path></marker><marker id="SvgjsMarker1616" markerWidth="16" markerHeight="12" refX="16" refY="6" viewBox="0 0 16 12" orient="auto" markerUnits="userSpaceOnUse" stroke-dasharray="0,0"><path id="SvgjsPath1617" d="M0,2 L14,6 L0,11 L0,2" fill="#323232" stroke="#323232" stroke-width="2"></path></marker><marker id="SvgjsMarker1620" markerWidth="16" markerHeight="12" refX="16" refY="6" viewBox="0 0 16 12" orient="auto" markerUnits="userSpaceOnUse" stroke-dasharray="0,0"><path id="SvgjsPath1621" d="M0,2 L14,6 L0,11 L0,2" fill="#323232" stroke="#323232" stroke-width="2"></path></marker><marker id="SvgjsMarker1626" markerWidth="16" markerHeight="12" refX="16" refY="6" viewBox="0 0 16 12" orient="auto" markerUnits="userSpaceOnUse" stroke-dasharray="0,0"><path id="SvgjsPath1627" d="M0,2 L14,6 L0,11 L0,2" fill="#323232" stroke="#323232" stroke-width="2"></path></marker><marker id="SvgjsMarker1630" markerWidth="16" markerHeight="12" refX="16" refY="6" viewBox="0 0 16 12" orient="auto" markerUnits="userSpaceOnUse" stroke-dasharray="0,0"><path id="SvgjsPath1631" d="M0,2 L14,6 L0,11 L0,2" fill="#323232" stroke="#323232" stroke-width="2"></path></marker></defs><g id="SvgjsG1324" transform="translate(221,25)"><path id="SvgjsPath1325" d="M 16.666666666666668 0L 83.33333333333333 0C 105.55555555555556 0 105.55555555555556 50 83.33333333333333 50L 16.666666666666668 50C -5.555555555555556 50 -5.555555555555556 0 16.666666666666668 0Z" stroke="rgba(50,50,50,1)" stroke-width="2" fill-opacity="1" fill="#ffffff"></path><g id="SvgjsG1326"><text id="SvgjsText1327" font-family="微软雅黑" text-anchor="middle" font-size="13px" width="80px" fill="#323232" font-weight="400" align="middle" anchor="middle" family="微软雅黑" size="13px" weight="400" font-style="" opacity="1" y="15.05" transform="rotate(0)"><tspan id="SvgjsTspan1328" dy="16" x="50"><tspan id="SvgjsTspan1329" style="text-decoration:;">开始</tspan></tspan></text></g></g><g id="SvgjsG1330" transform="translate(226,107)"><path id="SvgjsPath1331" d="M 0 35L 45 0L 90 35L 45 70L 0 35Z" stroke="rgba(50,50,50,1)" stroke-width="2" fill-opacity="1" fill="#ffffff"></path><g id="SvgjsG1332"><text id="SvgjsText1333" font-family="微软雅黑" text-anchor="middle" font-size="13px" width="70px" fill="#323232" font-weight="400" align="middle" anchor="middle" family="微软雅黑" size="13px" weight="400" font-style="" opacity="1" y="25.05" transform="rotate(0)"><tspan id="SvgjsTspan1334" dy="16" x="45"><tspan id="SvgjsTspan1335" style="text-decoration:;">判断</tspan></tspan></text></g></g><g id="SvgjsG1336"><path id="SvgjsPath1337" d="M271 177L271 204L271 204L271 231" stroke="#323232" stroke-width="2" fill="none" marker-end="url(#SvgjsMarker1338)"></path><rect id="SvgjsRect1340" width="7" height="16" x="267.5" y="187" fill="#ffffff"></rect><text id="SvgjsText1341" font-family="微软雅黑" text-anchor="middle" font-size="13px" width="7px" fill="#323232" font-weight="400" align="top" anchor="middle" family="微软雅黑" size="13px" weight="400" font-style="" opacity="1" y="185.05" transform="rotate(0)"><tspan id="SvgjsTspan1342" dy="16" x="271"><tspan id="SvgjsTspan1343" style="text-decoration:;">a</tspan></tspan></text></g><g id="SvgjsG1344" transform="translate(221,231)"><path id="SvgjsPath1345" d="M 0 0L 100 0L 100 70L 0 70Z" stroke="rgba(50,50,50,1)" stroke-width="2" fill-opacity="1" fill="#ffffff"></path><g id="SvgjsG1346"><text id="SvgjsText1347" font-family="微软雅黑" text-anchor="middle" font-size="13px" width="80px" fill="#323232" font-weight="400" align="middle" anchor="middle" family="微软雅黑" size="13px" weight="400" font-style="" opacity="1" y="17.05" transform="rotate(0)"><tspan id="SvgjsTspan1348" dy="16" x="50"><tspan id="SvgjsTspan1349" style="text-decoration:;">两个路径均已</tspan></tspan><tspan id="SvgjsTspan1350" dy="16" x="50"><tspan id="SvgjsTspan1351" style="text-decoration:;">给出</tspan></tspan></text></g></g><g id="SvgjsG1352"><path id="SvgjsPath1353" d="M316 142L361.5 142L361.5 142L407 142" stroke="#323232" stroke-width="2" fill="none" marker-end="url(#SvgjsMarker1354)"></path><rect id="SvgjsRect1356" width="7" height="16" x="358" y="134" fill="#ffffff"></rect><text id="SvgjsText1357" font-family="微软雅黑" text-anchor="middle" font-size="13px" width="7px" fill="#323232" font-weight="400" align="top" anchor="middle" family="微软雅黑" size="13px" weight="400" font-style="" opacity="1" y="132.05" transform="rotate(0)"><tspan id="SvgjsTspan1358" dy="16" x="361.5"><tspan id="SvgjsTspan1359" style="text-decoration:;">c</tspan></tspan></text></g><g id="SvgjsG1360"><path id="SvgjsPath1361" d="M226 142L175.5 142L175.5 142L125 142" stroke="#323232" stroke-width="2" fill="none" marker-end="url(#SvgjsMarker1362)"></path><rect id="SvgjsRect1364" width="8" height="16" x="171.5" y="134" fill="#ffffff"></rect><text id="SvgjsText1365" font-family="微软雅黑" text-anchor="middle" font-size="13px" width="8px" fill="#323232" font-weight="400" align="top" anchor="middle" family="微软雅黑" size="13px" weight="400" font-style="" opacity="1" y="132.05" transform="rotate(0)"><tspan id="SvgjsTspan1366" dy="16" x="175.5"><tspan id="SvgjsTspan1367" style="text-decoration:;">b</tspan></tspan></text></g><g id="SvgjsG1368"><path id="SvgjsPath1369" d="M271 75L271 91L271 91L271 107" stroke="#323232" stroke-width="2" fill="none" marker-end="url(#SvgjsMarker1370)"></path></g><g id="SvgjsG1372" transform="translate(25,107)"><path id="SvgjsPath1373" d="M 0 0L 100 0L 100 70L 0 70Z" stroke="rgba(50,50,50,1)" stroke-width="2" fill-opacity="1" fill="#ffffff"></path><g id="SvgjsG1374"><text id="SvgjsText1375" font-family="微软雅黑" text-anchor="middle" font-size="13px" width="80px" fill="#323232" font-weight="400" align="middle" anchor="middle" family="微软雅黑" size="13px" weight="400" font-style="" opacity="1" y="17.05" transform="rotate(0)"><tspan id="SvgjsTspan1376" dy="16" x="50"><tspan id="SvgjsTspan1377" style="text-decoration:;">只给出了源路</tspan></tspan><tspan id="SvgjsTspan1378" dy="16" x="50"><tspan id="SvgjsTspan1379" style="text-decoration:;">径</tspan></tspan></text></g></g><g id="SvgjsG1380" transform="translate(409,103)"><path id="SvgjsPath1381" d="M 0 0L 100 0L 100 70L 0 70Z" stroke="rgba(50,50,50,1)" stroke-width="2" fill-opacity="1" fill="#ffffff"></path><g id="SvgjsG1382"><text id="SvgjsText1383" font-family="微软雅黑" text-anchor="middle" font-size="13px" width="80px" fill="#323232" font-weight="400" align="middle" anchor="middle" family="微软雅黑" size="13px" weight="400" font-style="" opacity="1" y="17.05" transform="rotate(0)"><tspan id="SvgjsTspan1384" dy="16" x="50"><tspan id="SvgjsTspan1385" style="text-decoration:;">只给了目标路</tspan></tspan><tspan id="SvgjsTspan1386" dy="16" x="50"><tspan id="SvgjsTspan1387" style="text-decoration:;">径</tspan></tspan></text></g></g><g id="SvgjsG1388"><path id="SvgjsPath1389" d="M75 177L75 354L268 354" stroke="#323232" stroke-width="2" fill="none" marker-end="url(#SvgjsMarker1390)"></path></g><g id="SvgjsG1392"><path id="SvgjsPath1393" d="M271 301L271 346L271 346L271 391" stroke="#323232" stroke-width="2" fill="none" marker-end="url(#SvgjsMarker1394)"></path></g><g id="SvgjsG1396"><path id="SvgjsPath1397" d="M459 173L459 354L274 354" stroke="#323232" stroke-width="2" fill="none" marker-end="url(#SvgjsMarker1398)"></path></g><g id="SvgjsG1400"><path id="SvgjsPath1401" d="M271 461L271 481.5L271 481.5L271 502" stroke="#323232" stroke-width="2" fill="none" marker-end="url(#SvgjsMarker1402)"></path><rect id="SvgjsRect1404" width="26" height="16" x="258" y="473.5" fill="#ffffff"></rect><text id="SvgjsText1405" font-family="微软雅黑" text-anchor="middle" font-size="13px" width="26px" fill="#323232" font-weight="400" align="top" anchor="middle" family="微软雅黑" size="13px" weight="400" font-style="" opacity="1" y="471.55" transform="rotate(0)"><tspan id="SvgjsTspan1406" dy="16" x="271"><tspan id="SvgjsTspan1407" style="text-decoration:;">存在</tspan></tspan></text></g><g id="SvgjsG1408" transform="translate(221,502)"><path id="SvgjsPath1409" d="M 0 0L 100 0L 100 70L 0 70Z" stroke="rgba(50,50,50,1)" stroke-width="2" fill-opacity="1" fill="#ffffff"></path><g id="SvgjsG1410"><text id="SvgjsText1411" font-family="微软雅黑" text-anchor="middle" font-size="13px" width="80px" fill="#323232" font-weight="400" align="middle" anchor="middle" family="微软雅黑" size="13px" weight="400" font-style="" opacity="1" y="25.05" transform="rotate(0)"><tspan id="SvgjsTspan1412" dy="16" x="50"><tspan id="SvgjsTspan1413" style="text-decoration:;">生成随机子串</tspan></tspan></text></g></g><g id="SvgjsG1414" transform="translate(226,391)"><path id="SvgjsPath1415" d="M 0 35L 45 0L 90 35L 45 70L 0 35Z" stroke="rgba(50,50,50,1)" stroke-width="2" fill-opacity="1" fill="#ffffff"></path><g id="SvgjsG1416"><text id="SvgjsText1417" font-family="微软雅黑" text-anchor="middle" font-size="13px" width="70px" fill="#323232" font-weight="400" align="middle" anchor="middle" family="微软雅黑" size="13px" weight="400" font-style="" opacity="1" y="17.05" transform="rotate(0)"><tspan id="SvgjsTspan1418" dy="16" x="45"><tspan id="SvgjsTspan1419" style="text-decoration:;">目标文件夹</tspan></tspan><tspan id="SvgjsTspan1420" dy="16" x="45"><tspan id="SvgjsTspan1421" style="text-decoration:;">是否存在</tspan></tspan></text></g></g><g id="SvgjsG1422"><path id="SvgjsPath1423" d="M316 426L420 426L420 502" stroke="#323232" stroke-width="2" fill="none" marker-end="url(#SvgjsMarker1424)"></path><rect id="SvgjsRect1426" width="39" height="16" x="386.5" y="418" fill="#ffffff"></rect><text id="SvgjsText1427" font-family="微软雅黑" text-anchor="middle" font-size="13px" width="39px" fill="#323232" font-weight="400" align="top" anchor="middle" family="微软雅黑" size="13px" weight="400" font-style="" opacity="1" y="416.05" transform="rotate(0)"><tspan id="SvgjsTspan1428" dy="16" x="406"><tspan id="SvgjsTspan1429" style="text-decoration:;">不存在</tspan></tspan></text></g><g id="SvgjsG1430" transform="translate(370,502)"><path id="SvgjsPath1431" d="M 0 0L 100 0L 100 70L 0 70Z" stroke="rgba(50,50,50,1)" stroke-width="2" fill-opacity="1" fill="#ffffff"></path><g id="SvgjsG1432"><text id="SvgjsText1433" font-family="微软雅黑" text-anchor="middle" font-size="13px" width="80px" fill="#323232" font-weight="400" align="middle" anchor="middle" family="微软雅黑" size="13px" weight="400" font-style="" opacity="1" y="17.05" transform="rotate(0)"><tspan id="SvgjsTspan1434" dy="16" x="50"><tspan id="SvgjsTspan1435" style="text-decoration:;">创建目标文件</tspan></tspan><tspan id="SvgjsTspan1436" dy="16" x="50"><tspan id="SvgjsTspan1437" style="text-decoration:;">夹</tspan></tspan></text></g></g><g id="SvgjsG1438"><path id="SvgjsPath1439" d="M271 572L271 595L271 595L271 618" stroke="#323232" stroke-width="2" fill="none" marker-end="url(#SvgjsMarker1440)"></path></g><g id="SvgjsG1442" transform="translate(221,618)"><path id="SvgjsPath1443" d="M 0 0L 100 0L 100 70L 0 70Z" stroke="rgba(50,50,50,1)" stroke-width="2" fill-opacity="1" fill="#ffffff"></path><g id="SvgjsG1444"><text id="SvgjsText1445" font-family="微软雅黑" text-anchor="middle" font-size="13px" width="80px" fill="#323232" font-weight="400" align="middle" anchor="middle" family="微软雅黑" size="13px" weight="400" font-style="" opacity="1" y="9.05" transform="rotate(0)"><tspan id="SvgjsTspan1446" dy="16" x="50"><tspan id="SvgjsTspan1447" style="text-decoration:;">创建一个后缀</tspan></tspan><tspan id="SvgjsTspan1448" dy="16" x="50"><tspan id="SvgjsTspan1449" style="text-decoration:;">为随机子串的</tspan></tspan><tspan id="SvgjsTspan1450" dy="16" x="50"><tspan id="SvgjsTspan1451" style="text-decoration:;">文件夹</tspan></tspan></text></g></g><g id="SvgjsG1452"><path id="SvgjsPath1453" d="M420 572L420 719L273 719" stroke="#323232" stroke-width="2" fill="none" marker-end="url(#SvgjsMarker1454)"></path></g><g id="SvgjsG1456"><path id="SvgjsPath1457" d="M271 688L271 716.5L271 716.5L271 745" stroke="#323232" stroke-width="2" fill="none" marker-end="url(#SvgjsMarker1458)"></path></g><g id="SvgjsG1460" transform="translate(226,750)"><path id="SvgjsPath1461" d="M 0 35L 45 0L 90 35L 45 70L 0 35Z" stroke="rgba(50,50,50,1)" stroke-width="2" fill-opacity="1" fill="#ffffff"></path><g id="SvgjsG1462"><text id="SvgjsText1463" font-family="微软雅黑" text-anchor="middle" font-size="13px" width="70px" fill="#323232" font-weight="400" align="middle" anchor="middle" family="微软雅黑" size="13px" weight="400" font-style="" opacity="1" y="17.05" transform="rotate(0)"><tspan id="SvgjsTspan1464" dy="16" x="45"><tspan id="SvgjsTspan1465" style="text-decoration:;">是否还有元</tspan></tspan><tspan id="SvgjsTspan1466" dy="16" x="45"><tspan id="SvgjsTspan1467" style="text-decoration:;">素</tspan></tspan></text></g></g><g id="SvgjsG1468"><path id="SvgjsPath1469" d="M316 785L389.5 785L389.5 785L463 785" stroke="#323232" stroke-width="2" fill="none" marker-end="url(#SvgjsMarker1470)"></path><rect id="SvgjsRect1472" width="13" height="16" x="383" y="777" fill="#ffffff"></rect><text id="SvgjsText1473" font-family="微软雅黑" text-anchor="middle" font-size="13px" width="13px" fill="#323232" font-weight="400" align="top" anchor="middle" family="微软雅黑" size="13px" weight="400" font-style="" opacity="1" y="775.05" transform="rotate(0)"><tspan id="SvgjsTspan1474" dy="16" x="389.5"><tspan id="SvgjsTspan1475" style="text-decoration:;">否</tspan></tspan></text></g><g id="SvgjsG1476"><path id="SvgjsPath1477" d="M271 820L271 844L271 844L271 868" stroke="#323232" stroke-width="2" fill="none" marker-end="url(#SvgjsMarker1478)"></path><rect id="SvgjsRect1480" width="13" height="16" x="264.5" y="830" fill="#ffffff"></rect><text id="SvgjsText1481" font-family="微软雅黑" text-anchor="middle" font-size="13px" width="13px" fill="#323232" font-weight="400" align="top" anchor="middle" family="微软雅黑" size="13px" weight="400" font-style="" opacity="1" y="828.05" transform="rotate(0)"><tspan id="SvgjsTspan1482" dy="16" x="271"><tspan id="SvgjsTspan1483" style="text-decoration:;">是</tspan></tspan></text></g><g id="SvgjsG1484" transform="translate(226,875)"><path id="SvgjsPath1485" d="M 0 35L 45 0L 90 35L 45 70L 0 35Z" stroke="rgba(50,50,50,1)" stroke-width="2" fill-opacity="1" fill="#ffffff"></path><g id="SvgjsG1486"><text id="SvgjsText1487" font-family="微软雅黑" text-anchor="middle" font-size="13px" width="70px" fill="#323232" font-weight="400" align="middle" anchor="middle" family="微软雅黑" size="13px" weight="400" font-style="" opacity="1" y="17.05" transform="rotate(0)"><tspan id="SvgjsTspan1488" dy="16" x="45"><tspan id="SvgjsTspan1489" style="text-decoration:;">是否为文件</tspan></tspan><tspan id="SvgjsTspan1490" dy="16" x="45"><tspan id="SvgjsTspan1491" style="text-decoration:;">夹</tspan></tspan></text></g></g><g id="SvgjsG1492"><path id="SvgjsPath1493" d="M226 910L152 910" stroke="#323232" stroke-width="2" fill="none"></path><rect id="SvgjsRect1494" width="13" height="16" x="182.5" y="902" fill="#ffffff"></rect><text id="SvgjsText1495" font-family="微软雅黑" text-anchor="middle" font-size="13px" width="13px" fill="#323232" font-weight="400" align="top" anchor="middle" family="微软雅黑" size="13px" weight="400" font-style="" opacity="1" y="900.05" transform="rotate(0)"><tspan id="SvgjsTspan1496" dy="16" x="189"><tspan id="SvgjsTspan1497" style="text-decoration:;">是</tspan></tspan></text></g><g id="SvgjsG1498"><path id="SvgjsPath1499" d="M271 945L271 972L271 972L271 999" stroke="#323232" stroke-width="2" fill="none" marker-end="url(#SvgjsMarker1500)"></path><rect id="SvgjsRect1502" width="13" height="16" x="264.5" y="964" fill="#ffffff"></rect><text id="SvgjsText1503" font-family="微软雅黑" text-anchor="middle" font-size="13px" width="13px" fill="#323232" font-weight="400" align="top" anchor="middle" family="微软雅黑" size="13px" weight="400" font-style="" opacity="1" y="962.05" transform="rotate(0)"><tspan id="SvgjsTspan1504" dy="16" x="271"><tspan id="SvgjsTspan1505" style="text-decoration:;">否</tspan></tspan></text></g><g id="SvgjsG1506" transform="translate(467,750)"><path id="SvgjsPath1507" d="M 0 0L 100 0L 100 70L 0 70Z" stroke="rgba(50,50,50,1)" stroke-width="2" fill-opacity="1" fill="#ffffff"></path><g id="SvgjsG1508"><text id="SvgjsText1509" font-family="微软雅黑" text-anchor="middle" font-size="13px" width="80px" fill="#323232" font-weight="400" align="middle" anchor="middle" family="微软雅黑" size="13px" weight="400" font-style="" opacity="1" y="9.05" transform="rotate(0)"><tspan id="SvgjsTspan1510" dy="16" x="50"><tspan id="SvgjsTspan1511" style="text-decoration:;">利用column </tspan></tspan><tspan id="SvgjsTspan1512" dy="16" x="50"><tspan id="SvgjsTspan1513" style="text-decoration:;">-t对齐分析文</tspan></tspan><tspan id="SvgjsTspan1514" dy="16" x="50"><tspan id="SvgjsTspan1515" style="text-decoration:;">件</tspan></tspan></text></g></g><g id="SvgjsG1516"><path id="SvgjsPath1517" d="M517 820L517 857.5L517 857.5L517 895" stroke="#323232" stroke-width="2" fill="none" marker-end="url(#SvgjsMarker1518)"></path></g><g id="SvgjsG1520" transform="translate(467,895)"><path id="SvgjsPath1521" d="M 0 0L 100 0L 100 70L 0 70Z" stroke="rgba(50,50,50,1)" stroke-width="2" fill-opacity="1" fill="#ffffff"></path><g id="SvgjsG1522"><text id="SvgjsText1523" font-family="微软雅黑" text-anchor="middle" font-size="13px" width="80px" fill="#323232" font-weight="400" align="middle" anchor="middle" family="微软雅黑" size="13px" weight="400" font-style="" opacity="1" y="17.05" transform="rotate(0)"><tspan id="SvgjsTspan1524" dy="16" x="50"><tspan id="SvgjsTspan1525" style="text-decoration:;">删除tmp缓存</tspan></tspan><tspan id="SvgjsTspan1526" dy="16" x="50"><tspan id="SvgjsTspan1527" style="text-decoration:;">文件</tspan></tspan></text></g></g><g id="SvgjsG1528"><path id="SvgjsPath1529" d="M517 965L517 1008L517 1008L517 1051" stroke="#323232" stroke-width="2" fill="none" marker-end="url(#SvgjsMarker1530)"></path></g><g id="SvgjsG1532" transform="translate(467,1051)"><path id="SvgjsPath1533" d="M 0 0L 100 0L 100 70L 0 70Z" stroke="rgba(50,50,50,1)" stroke-width="2" fill-opacity="1" fill="#ffffff"></path><g id="SvgjsG1534"><text id="SvgjsText1535" font-family="微软雅黑" text-anchor="middle" font-size="13px" width="80px" fill="#323232" font-weight="400" align="middle" anchor="middle" family="微软雅黑" size="13px" weight="400" font-style="" opacity="1" y="17.05" transform="rotate(0)"><tspan id="SvgjsTspan1536" dy="16" x="50"><tspan id="SvgjsTspan1537" style="text-decoration:;">在终端上显示</tspan></tspan><tspan id="SvgjsTspan1538" dy="16" x="50"><tspan id="SvgjsTspan1539" style="text-decoration:;">三个路径</tspan></tspan></text></g></g><g id="SvgjsG1540" transform="translate(212.5,1005)"><path id="SvgjsPath1541" d="M 0 35L 58.5 0L 117 35L 58.5 70L 0 35Z" stroke="rgba(50,50,50,1)" stroke-width="2" fill-opacity="1" fill="#ffffff"></path><g id="SvgjsG1542"><text id="SvgjsText1543" font-family="微软雅黑" text-anchor="middle" font-size="13px" width="97px" fill="#323232" font-weight="400" align="middle" anchor="middle" family="微软雅黑" size="13px" weight="400" font-style="" opacity="1" y="17.05" transform="rotate(0)"><tspan id="SvgjsTspan1544" dy="16" x="58.5"><tspan id="SvgjsTspan1545" style="text-decoration:;">是否存在以后缀</tspan></tspan><tspan id="SvgjsTspan1546" dy="16" x="58.5"><tspan id="SvgjsTspan1547" style="text-decoration:;">为名的文件夹</tspan></tspan></text></g></g><g id="SvgjsG1548"><path id="SvgjsPath1549" d="M271 1075L271 1118L271 1118L271 1161" stroke="#323232" stroke-width="2" fill="none" marker-end="url(#SvgjsMarker1550)"></path><rect id="SvgjsRect1552" width="13" height="16" x="264.5" y="1110" fill="#ffffff"></rect><text id="SvgjsText1553" font-family="微软雅黑" text-anchor="middle" font-size="13px" width="13px" fill="#323232" font-weight="400" align="top" anchor="middle" family="微软雅黑" size="13px" weight="400" font-style="" opacity="1" y="1108.05" transform="rotate(0)"><tspan id="SvgjsTspan1554" dy="16" x="271"><tspan id="SvgjsTspan1555" style="text-decoration:;">是</tspan></tspan></text></g><g id="SvgjsG1556"><path id="SvgjsPath1557" d="M212.5 1040L171 1040L171 1054" stroke="#323232" stroke-width="2" fill="none" marker-end="url(#SvgjsMarker1558)"></path><rect id="SvgjsRect1560" width="13" height="16" x="178.25" y="1032" fill="#ffffff"></rect><text id="SvgjsText1561" font-family="微软雅黑" text-anchor="middle" font-size="13px" width="13px" fill="#323232" font-weight="400" align="top" anchor="middle" family="微软雅黑" size="13px" weight="400" font-style="" opacity="1" y="1030.05" transform="rotate(0)"><tspan id="SvgjsTspan1562" dy="16" x="184.75"><tspan id="SvgjsTspan1563" style="text-decoration:;">否</tspan></tspan></text></g><g id="SvgjsG1564" transform="translate(121,1054)"><path id="SvgjsPath1565" d="M 0 0L 100 0L 100 70L 0 70Z" stroke="rgba(50,50,50,1)" stroke-width="2" fill-opacity="1" fill="#ffffff"></path><g id="SvgjsG1566"><text id="SvgjsText1567" font-family="微软雅黑" text-anchor="middle" font-size="13px" width="80px" fill="#323232" font-weight="400" align="middle" anchor="middle" family="微软雅黑" size="13px" weight="400" font-style="" opacity="1" y="17.05" transform="rotate(0)"><tspan id="SvgjsTspan1568" dy="16" x="50"><tspan id="SvgjsTspan1569" style="text-decoration:;">创建以后缀为</tspan></tspan><tspan id="SvgjsTspan1570" dy="16" x="50"><tspan id="SvgjsTspan1571" style="text-decoration:;">名文件夹</tspan></tspan></text></g></g><g id="SvgjsG1572"><path id="SvgjsPath1573" d="M171 1124L171 1136L268 1136" stroke="#323232" stroke-width="2" fill="none" marker-end="url(#SvgjsMarker1574)"></path></g><g id="SvgjsG1576" transform="translate(221,1161)"><path id="SvgjsPath1577" d="M 0 35L 50 0L 100 35L 50 70L 0 35Z" stroke="rgba(50,50,50,1)" stroke-width="2" fill-opacity="1" fill="#ffffff"></path><g id="SvgjsG1578"><text id="SvgjsText1579" font-family="微软雅黑" text-anchor="middle" font-size="13px" width="80px" fill="#323232" font-weight="400" align="middle" anchor="middle" family="微软雅黑" size="13px" weight="400" font-style="" opacity="1" y="17.05" transform="rotate(0)"><tspan id="SvgjsTspan1580" dy="16" x="50"><tspan id="SvgjsTspan1581" style="text-decoration:;">是否存在同名</tspan></tspan><tspan id="SvgjsTspan1582" dy="16" x="50"><tspan id="SvgjsTspan1583" style="text-decoration:;">文件</tspan></tspan></text></g></g><g id="SvgjsG1584"><path id="SvgjsPath1585" d="M271 1231L271 1277L271 1277L271 1323" stroke="#323232" stroke-width="2" fill="none" marker-end="url(#SvgjsMarker1586)"></path><rect id="SvgjsRect1588" width="13" height="16" x="264.5" y="1269" fill="#ffffff"></rect><text id="SvgjsText1589" font-family="微软雅黑" text-anchor="middle" font-size="13px" width="13px" fill="#323232" font-weight="400" align="top" anchor="middle" family="微软雅黑" size="13px" weight="400" font-style="" opacity="1" y="1267.05" transform="rotate(0)"><tspan id="SvgjsTspan1590" dy="16" x="271"><tspan id="SvgjsTspan1591" style="text-decoration:;">否</tspan></tspan></text></g><g id="SvgjsG1592" transform="translate(221,1323)"><path id="SvgjsPath1593" d="M 0 0L 100 0L 100 70L 0 70Z" stroke="rgba(50,50,50,1)" stroke-width="2" fill-opacity="1" fill="#ffffff"></path><g id="SvgjsG1594"><text id="SvgjsText1595" font-family="微软雅黑" text-anchor="middle" font-size="13px" width="80px" fill="#323232" font-weight="400" align="middle" anchor="middle" family="微软雅黑" size="13px" weight="400" font-style="" opacity="1" y="17.05" transform="rotate(0)"><tspan id="SvgjsTspan1596" dy="16" x="50"><tspan id="SvgjsTspan1597" style="text-decoration:;">将文件复制过</tspan></tspan><tspan id="SvgjsTspan1598" dy="16" x="50"><tspan id="SvgjsTspan1599" style="text-decoration:;">去</tspan></tspan></text></g></g><g id="SvgjsG1600"><path id="SvgjsPath1601" d="M221 1196L132 1196L132 1219" stroke="#323232" stroke-width="2" fill="none" marker-end="url(#SvgjsMarker1602)"></path><rect id="SvgjsRect1604" width="13" height="16" x="158.5" y="1188" fill="#ffffff"></rect><text id="SvgjsText1605" font-family="微软雅黑" text-anchor="middle" font-size="13px" width="13px" fill="#323232" font-weight="400" align="top" anchor="middle" family="微软雅黑" size="13px" weight="400" font-style="" opacity="1" y="1186.05" transform="rotate(0)"><tspan id="SvgjsTspan1606" dy="16" x="165"><tspan id="SvgjsTspan1607" style="text-decoration:;">是</tspan></tspan></text></g><g id="SvgjsG1608" transform="translate(82,1219)"><path id="SvgjsPath1609" d="M 0 0L 100 0L 100 70L 0 70Z" stroke="rgba(50,50,50,1)" stroke-width="2" fill-opacity="1" fill="#ffffff"></path><g id="SvgjsG1610"><text id="SvgjsText1611" font-family="微软雅黑" text-anchor="middle" font-size="13px" width="80px" fill="#323232" font-weight="400" align="middle" anchor="middle" family="微软雅黑" size="13px" weight="400" font-style="" opacity="1" y="25.05" transform="rotate(0)"><tspan id="SvgjsTspan1612" dy="16" x="50"><tspan id="SvgjsTspan1613" style="text-decoration:;">更名</tspan></tspan></text></g></g><g id="SvgjsG1614"><path id="SvgjsPath1615" d="M132 1289L132 1358L221 1358" stroke="#323232" stroke-width="2" fill="none" marker-end="url(#SvgjsMarker1616)"></path></g><g id="SvgjsG1618"><path id="SvgjsPath1619" d="M271 1393L271 1423L57 1423L57 785L226 785" stroke="#323232" stroke-width="2" fill="none" marker-end="url(#SvgjsMarker1620)"></path></g><g id="SvgjsG1622"><path id="SvgjsPath1623" d="M152 910.5555555555555L152 719.1111111111109" stroke="#323232" stroke-width="2" fill="none"></path></g><g id="SvgjsG1624"><path id="SvgjsPath1625" d="M151 718.8888888888889L269 718.8888888888889" stroke="#323232" stroke-width="2" fill="none" marker-end="url(#SvgjsMarker1626)"></path></g><g id="SvgjsG1628"><path id="SvgjsPath1629" d="M517 1121L517 1234" stroke="#323232" stroke-width="2" fill="none" marker-end="url(#SvgjsMarker1630)"></path></g><g id="SvgjsG1632" transform="translate(467,1234)"><path id="SvgjsPath1633" d="M 16.666666666666668 0L 83.33333333333333 0C 105.55555555555556 0 105.55555555555556 50 83.33333333333333 50L 16.666666666666668 50C -5.555555555555556 50 -5.555555555555556 0 16.666666666666668 0Z" stroke="rgba(50,50,50,1)" stroke-width="2" fill-opacity="1" fill="#ffffff"></path><g id="SvgjsG1634"><text id="SvgjsText1635" font-family="微软雅黑" text-anchor="middle" font-size="13px" width="80px" fill="#323232" font-weight="400" align="middle" anchor="middle" family="微软雅黑" size="13px" weight="400" font-style="" opacity="1" y="15.05" transform="rotate(0)"><tspan id="SvgjsTspan1636" dy="16" x="50"><tspan id="SvgjsTspan1637" style="text-decoration:;">结束</tspan></tspan></text></g></g></svg>